  0
SECTION
  2
HEADER
  9
$ACADVER
  1
AC1015
  9
$LUNITS
 70
2
  9
$INSUNITS
 70
4
  9
$HANDSEED
  5
2710
  0
ENDSEC
  0
SECTION
  2
TABLES
  0
TABLE
  2
VPORT
  5
8
100
AcDbSymbolTable
 70
2
  0
VPORT
  5
107
100
AcDbSymbolTableRecord
100
AcDbViewportTableRecord
  2
*Active
 70
0
 10
0.0
 20
0.0
 11
1.0
 21
1.0
 12
1124.6965
 22
-636.2355
 13
0.0
 23
0.0
 14
10.0
 24
10.0
 15
10.0
 25
10.0
 16
0.0
 26
0.0
 36
1.0
 17
0.0
 27
0.0
 37
0.0
 40
1232.471
 41
1.79265313342058
 42
50.0
 43
0.0
 44
0.0
 50
0.0
 51
0.0
 71
0
 72
1000
 73
1
 74
3
 75
0
 76
0
 77
0
 78
0
 281
0
 65
1
110
0.0
120
0.0
130
0.0
111
1.0
121
0.0
131
0.0
112
0.0
122
1.0
132
0.0
 79
0
146
0.0
  0
ENDTAB
  0
TABLE
  2
LTYPE
  5
5
100
AcDbSymbolTable
 70
1
  0
LTYPE
  5
14
100
AcDbSymbolTableRecord
100
AcDbLinetypeTableRecord
  2
ByBlock
 70
0
  3

 72
65
 73
0
 40
0.0
  0
LTYPE
  5
15
100
AcDbSymbolTableRecord
100
AcDbLinetypeTableRecord
  2
ByLayer
 70
0
  3

 72
65
 73
0
 40
0.0
  0
ENDTAB
  0
TABLE
  2
LAYER
  5
2
100
AcDbSymbolTable
 70
1
  0
LAYER
  5
10
100
AcDbSymbolTableRecord
100
AcDbLayerTableRecord
  2
0
 70
0
 62
7
  6
Continuous
370
-3
390
F
  0
ENDTAB
  0
TABLE
  2
STYLE
  5
3
100
AcDbSymbolTable
 70
1
  0
STYLE
  5
11
100
AcDbSymbolTableRecord
100
AcDbTextStyleTableRecord
  2
Standard
 70
0
 40
0.0
 41
1.0
 50
0.0
 71
0
 42
2.5
  3
txt
  4

  0
ENDTAB
  0
TABLE
  2
VIEW
  5
6
100
AcDbSymbolTable
 70
0
  0
ENDTAB
  0
TABLE
  2
UCS
  5
7
100
AcDbSymbolTable
 70
0
  0
ENDTAB
  0
TABLE
  2
APPID
  5
9
100
AcDbSymbolTable
 70
3
  0
APPID
  5
12
100
AcDbSymbolTableRecord
100
AcDbRegAppTableRecord
  2
ACAD
 70
0
  0
APPID
  5
9E
100
AcDbSymbolTableRecord
100
AcDbRegAppTableRecord
  2
ACAD_PSEXT
 70
0
  0
ENDTAB
  0
TABLE
  2
DIMSTYLE
  5
A
100
AcDbSymbolTable
 70
1
100
AcDbDimStyleTable
 71
1
340
27
  0
DIMSTYLE
  105
27
100
AcDbSymbolTableRecord
100
AcDbDimStyleTableRecord
  2
ISO-25
 70
0
 41
2.5
 42
0.625
 43
3.75
 44
1.25
 73
0
 74
0
 77
1
 78
8
140
2.5
141
2.5
143
0.03937007874016
147
0.625
171
3
172
1
271
2
272
2
274
3
278
44
283
0
284
8
340
11
  0
ENDTAB
  0
TABLE
  2
BLOCK_RECORD
  5
1
100
AcDbSymbolTable
 70
1
  0
BLOCK_RECORD
  5
1F
100
AcDbSymbolTableRecord
100
AcDbBlockTableRecord
  2
*Model_Space
340
22
  0
BLOCK_RECORD
  5
D2
100
AcDbSymbolTableRecord
100
AcDbBlockTableRecord
  2
*Paper_Space
340
D3
  0
ENDTAB
  0
ENDSEC
  0
SECTION
  2
BLOCKS
  0
BLOCK
  5
20
100
AcDbEntity
  8
0
100
AcDbBlockBegin
  2
*Model_Space
 70
0
 10
0.0
 20
0.0
 30
0.0
  3
*Model_Space
  1

  0
ENDBLK
  5
21
100
AcDbEntity
  8
0
100
AcDbBlockEnd
  0
BLOCK
  5
D4
100
AcDbEntity
 67
1
  8
0
100
AcDbBlockBegin
  2
*Paper_Space
 70
0
 10
0.0
 20
0.0
 30
0.0
  3
*Paper_Space
  1

  0
ENDBLK
  5
D5
100
AcDbEntity
 67
1
  8
0
100
AcDbBlockEnd
  0
ENDSEC
  0
SECTION
  2
ENTITIES
  0
LWPOLYLINE
  5
3E8
100
AcDbEntity
  8
1
100
AcDbPolyline
 90
4
 70
1
 43
0.0
 10
1419.288
 20
-565.512
 10
739.288
 20
-565.511
 10
739.288
 20
-580.51
 10
1419.288
 20
-580.511
  0
LINE
  5
3E9
100
AcDbEntity
  8
7
100
AcDbLine
 10
1192.623
 20
-573.012
 11
965.955
 21
-573.012
  0
TEXT
  5
3EA
100
AcDbEntity
  8
1
100
AcDbText
 10
965.955
 20
-562.012
 40
10.00
  1
PIECE NAME: Лекало1-42
100
AcDbText
  0
TEXT
  5
3EB
100
AcDbEntity
  8
1
100
AcDbText
 10
965.955
 20
-551.012
 40
10.00
  1
SIZE: 42
100
AcDbText
  0
TEXT
  5
3EC
100
AcDbEntity
  8
1
100
AcDbText
 10
965.955
 20
-540.012
 40
10.00
  1
ANNOTATION: 
100
AcDbText
  0
TEXT
  5
3ED
100
AcDbEntity
  8
1
100
AcDbText
 10
965.955
 20
-529.012
 40
10.00
  1
QUANTITY: 1
100
AcDbText
  0
TEXT
  5
3EE
100
AcDbEntity
  8
1
100
AcDbText
 10
965.955
 20
-518.012
 40
10.00
  1
MATERIAL: 
100
AcDbText
  0
LWPOLYLINE
  5
3EF
100
AcDbEntity
  8
1
100
AcDbPolyline
 90
26
 70
1
 43
0.0
 10
1377.982
 20
-1198.43
 10
1207.095
 20
-701.317
 10
1200.201
 20
-702.638
 10
1177.255
 20
-705.907
 10
1150.621
 20
-707.959
 10
1117.731
 20
-708.684
 10
1105.943
 20
-708.602
 10
1075.64
 20
-707.428
 10
1050.372
 20
-704.97
 10
1028.367
 20
-701.317
 10
857.481
 20
-1198.43
 10
861.779
 20
-1199.748
 10
899.485
 20
-1210.384
 10
936.923
 20
-1219.3
 10
974.083
 20
-1226.524
 10
1010.804
 20
-1232.05
 10
1047.05
 20
-1235.905
 10
1082.714
 20
-1238.106
 10
1117.731
 20
-1238.684
 10
1121.619
 20
-1238.698
 10
1156.725
 20
-1237.94
 10
1192.47
 20
-1235.554
 10
1228.791
 20
-1231.51
 10
1265.578
 20
-1225.79
 10
1302.795
 20
-1218.37
 10
1340.279
 20
-1209.254
  0
LINE
  5
3F0
100
AcDbEntity
  8
7
100
AcDbLine
 10
1030.982
 20
-1198.43
 11
944.231
 21
-1198.43
  0
LINE
  5
3F1
100
AcDbEntity
  8
11
100
AcDbLine
 10
1117.731
 20
-708.684
 11
1117.807
 21
-718.683
  0
LINE
  5
3F2
100
AcDbEntity
  8
11
100
AcDbLine
 10
1117.731
 20
-1238.684
 11
1117.769
 21
-1228.684
  0
TEXT
  5
3F3
100
AcDbEntity
  8
1
100
AcDbText
 10
944.231
 20
-1187.43
 40
10.00
  1
PIECE NAME: Лекало2-42
100
AcDbText
  0
TEXT
  5
3F4
100
AcDbEntity
  8
1
100
AcDbText
 10
944.231
 20
-1176.43
 40
10.00
  1
SIZE: 42
100
AcDbText
  0
TEXT
  5
3F5
100
AcDbEntity
  8
1
100
AcDbText
 10
944.231
 20
-1165.43
 40
10.00
  1
ANNOTATION: 
100
AcDbText
  0
TEXT
  5
3F6
100
AcDbEntity
  8
1
100
AcDbText
 10
944.231
 20
-1154.43
 40
10.00
  1
QUANTITY: 1
100
AcDbText
  0
TEXT
  5
3F7
100
AcDbEntity
  8
1
100
AcDbText
 10
944.231
 20
-1143.43
 40
10.00
  1
MATERIAL: 
100
AcDbText
  0
LWPOLYLINE
  5
3F8
100
AcDbEntity
  8
1
100
AcDbPolyline
 90
15
 70
1
 43
0.0
 10
1950.388
 20
-1204.515
 10
2121.894
 20
-708.033
 10
2120.464
 20
-707.732
 10
2101.894
 20
-702.976
 10
2085.29
 20
-697.141
 10
2070.357
 20
-690.253
 10
2056.851
 20
-682.303
 10
2044.624
 20
-673.277
 10
1714.25
 20
-1095.157
 10
1729.072
 20
-1104.24
 10
1764.823
 20
-1124.814
 10
1801.265
 20
-1143.944
 10
1838.205
 20
-1161.538
 10
1875.486
 20
-1177.534
 10
1912.956
 20
-1191.881
  0
LINE
  5
3F9
100
AcDbEntity
  8
7
100
AcDbLine
 10
1896.86
 20
-1095.157
 11
1805.555
 21
-1095.157
  0
TEXT
  5
3FA
100
AcDbEntity
  8
1
100
AcDbText
 10
1805.555
 20
-1084.157
 40
10.00
  1
PIECE NAME: Лекало3-42
100
AcDbText
  0
TEXT
  5
3FB
100
AcDbEntity
  8
1
100
AcDbText
 10
1805.555
 20
-1073.157
 40
10.00
  1
SIZE: 42
100
AcDbText
  0
TEXT
  5
3FC
100
AcDbEntity
  8
1
100
AcDbText
 10
1805.555
 20
-1062.157
 40
10.00
  1
ANNOTATION: 
100
AcDbText
  0
TEXT
  5
3FD
100
AcDbEntity
  8
1
100
AcDbText
 10
1805.555
 20
-1051.157
 40
10.00
  1
QUANTITY: 1
100
AcDbText
  0
TEXT
  5
3FE
100
AcDbEntity
  8
1
100
AcDbText
 10
1805.555
 20
-1040.157
 40
10.00
  1
MATERIAL: fabric
100
AcDbText
  0
LWPOLYLINE
  5
3FF
100
AcDbEntity
  8
1
100
AcDbPolyline
 90
14
 70
1
 43
0.0
 10
1972.482
 20
-1211.879
 10
1977.469
 20
-1213.435
 10
2014.758
 20
-1224.127
 10
2051.75
 20
-1233.086
 10
2088.355
 20
-1240.323
 10
2124.489
 20
-1245.856
 10
2160.077
 20
-1249.706
 10
2195.052
 20
-1251.9
 10
2229.393
 20
-1252.471
 10
2229.393
 20
-722.471
 10
2219.651
 20
-722.415
 10
2189.77
 20
-721.323
 10
2165.213
 20
-718.954
 10
2143.988
 20
-715.398
  0
LINE
  5
400
100
AcDbEntity
  8
7
100
AcDbLine
 10
2070.608
 20
-1189.254
 11
1985.154
 21
-1189.254
  0
TEXT
  5
401
100
AcDbEntity
  8
1
100
AcDbText
 10
1985.154
 20
-1178.254
 40
10.00
  1
PIECE NAME: Лекало4-42
100
AcDbText
  0
TEXT
  5
402
100
AcDbEntity
  8
1
100
AcDbText
 10
1985.154
 20
-1167.254
 40
10.00
  1
SIZE: 42
100
AcDbText
  0
TEXT
  5
403
100
AcDbEntity
  8
1
100
AcDbText
 10
1985.154
 20
-1156.254
 40
10.00
  1
ANNOTATION: 
100
AcDbText
  0
TEXT
  5
404
100
AcDbEntity
  8
1
100
AcDbText
 10
1985.154
 20
-1145.254
 40
10.00
  1
QUANTITY: 1
100
AcDbText
  0
TEXT
  5
405
100
AcDbEntity
  8
1
100
AcDbText
 10
1985.154
 20
-1134.254
 40
10.00
  1
MATERIAL: fabric
100
AcDbText
  0
LWPOLYLINE
  5
406
100
AcDbEntity
  8
1
100
AcDbPolyline
 90
15
 70
1
 43
0.0
 10
1284.021
 20
-711.908
 10
1454.907
 20
-1209.022
 10
1473.195
 20
-1203.172
 10
1510.982
 20
-1189.832
 10
1548.657
 20
-1174.827
 10
1585.998
 20
-1158.227
 10
1622.896
 20
-1140.072
 10
1659.163
 20
-1120.442
 10
1694.583
 20
-1099.454
 10
1365.914
 20
-676.336
 10
1365.041
 20
-677.009
 10
1351.742
 20
-686.18
 10
1337.2
 20
-694.238
 10
1321.232
 20
-701.215
 10
1303.609
 20
-707.112
  0
LINE
  5
407
100
AcDbEntity
  8
7
100
AcDbLine
 10
1602.136
 20
-1099.454
 11
1509.689
 21
-1099.454
  0
TEXT
  5
408
100
AcDbEntity
  8
1
100
AcDbText
 10
1509.689
 20
-1088.454
 40
10.00
  1
PIECE NAME: Лекало5-42
100
AcDbText
  0
TEXT
  5
409
100
AcDbEntity
  8
1
100
AcDbText
 10
1509.689
 20
-1077.454
 40
10.00
  1
SIZE: 42
100
AcDbText
  0
TEXT
  5
40A
100
AcDbEntity
  8
1
100
AcDbText
 10
1509.689
 20
-1066.454
 40
10.00
  1
ANNOTATION: 
100
AcDbText
  0
TEXT
  5
40B
100
AcDbEntity
  8
1
100
AcDbText
 10
1509.689
 20
-1055.454
 40
10.00
  1
QUANTITY: 1
100
AcDbText
  0
TEXT
  5
40C
100
AcDbEntity
  8
1
100
AcDbText
 10
1509.689
 20
-1044.454
 40
10.00
  1
MATERIAL: 
100
AcDbText
  0
LWPOLYLINE
  5
40D
100
AcDbEntity
  8
1
100
AcDbPolyline
 90
15
 70
1
 43
0.0
 10
535.143
 20
-1088.278
 10
204.769
 20
-666.397
 10
203.929
 20
-667.083
 10
191.614
 20
-676.031
 10
178.022
 20
-683.899
 10
162.98
 20
-690.711
 10
146.242
 20
-696.473
 10
127.499
 20
-701.154
 10
299.005
 20
-1197.635
 10
314.79
 20
-1192.513
 10
352.24
 20
-1179.159
 10
389.642
 20
-1164.115
 10
426.807
 20
-1147.435
 10
463.543
 20
-1129.192
 10
499.732
 20
-1109.434
  0
LINE
  5
40E
100
AcDbEntity
  8
7
100
AcDbLine
 10
257.326
 20
-833.831
 11
178.576
 21
-833.831
  0
TEXT
  5
40F
100
AcDbEntity
  8
1
100
AcDbText
 10
178.576
 20
-822.831
 40
10.00
  1
PIECE NAME: Лекало6-42
100
AcDbText
  0
TEXT
  5
410
100
AcDbEntity
  8
1
100
AcDbText
 10
178.576
 20
-811.831
 40
10.00
  1
SIZE: 42
100
AcDbText
  0
TEXT
  5
411
100
AcDbEntity
  8
1
100
AcDbText
 10
178.576
 20
-800.831
 40
10.00
  1
ANNOTATION: 
100
AcDbText
  0
TEXT
  5
412
100
AcDbEntity
  8
1
100
AcDbText
 10
178.576
 20
-789.831
 40
10.00
  1
QUANTITY: 1
100
AcDbText
  0
TEXT
  5
413
100
AcDbEntity
  8
1
100
AcDbText
 10
178.576
 20
-778.831
 40
10.00
  1
MATERIAL: fabric
100
AcDbText
  0
LWPOLYLINE
  5
414
100
AcDbEntity
  8
1
100
AcDbPolyline
 90
14
 70
1
 43
0.0
 10
105.404
 20
-708.519
 10
99.873
 20
-709.605
 10
77.863
 20
-712.841
 10
52.154
 20
-714.872
 10
20
 20
-715.591
 10
20
 20
-1245.591
 10
24.445
 20
-1245.608
 10
58.874
 20
-1244.827
 10
93.97
 20
-1242.415
 10
129.63
 20
-1238.345
 10
165.866
 20
-1232.583
 10
202.562
 20
-1225.11
 10
239.594
 20
-1215.921
 10
276.91
 20
-1205
  0
LINE
  5
415
100
AcDbEntity
  8
7
100
AcDbLine
 10
178.784
 20
-1182.375
 11
93.33
 21
-1182.375
  0
TEXT
  5
416
100
AcDbEntity
  8
1
100
AcDbText
 10
93.33
 20
-1171.375
 40
10.00
  1
PIECE NAME: Лекало7-42
100
AcDbText
  0
TEXT
  5
417
100
AcDbEntity
  8
1
100
AcDbText
 10
93.33
 20
-1160.375
 40
10.00
  1
SIZE: 42
100
AcDbText
  0
TEXT
  5
418
100
AcDbEntity
  8
1
100
AcDbText
 10
93.33
 20
-1149.375
 40
10.00
  1
ANNOTATION: 
100
AcDbText
  0
TEXT
  5
419
100
AcDbEntity
  8
1
100
AcDbText
 10
93.33
 20
-1138.375
 40
10.00
  1
QUANTITY: 1
100
AcDbText
  0
TEXT
  5
41A
100
AcDbEntity
  8
1
100
AcDbText
 10
93.33
 20
-1127.375
 40
10.00
  1
MATERIAL: fabric
100
AcDbText
  0
LWPOLYLINE
  5
41B
100
AcDbEntity
  8
1
100
AcDbPolyline
 90
15
 70
1
 43
0.0
 10
883.479
 20
-669.454
 10
554.81
 20
-1092.572
 10
571.985
 20
-1102.981
 10
607.794
 20
-1123.294
 10
644.36
 20
-1142.202
 10
681.501
 20
-1159.613
 10
718.994
 20
-1175.432
 10
756.691
 20
-1189.615
 10
794.486
 20
-1202.14
 10
965.372
 20
-705.027
 10
963.97
 20
-704.736
 10
944.515
 20
-699.861
 10
927.026
 20
-693.893
 10
911.153
 20
-686.839
 10
896.694
 20
-678.701
  0
LINE
  5
41C
100
AcDbEntity
  8
7
100
AcDbLine
 10
739.704
 20
-1092.572
 11
647.257
 21
-1092.572
  0
TEXT
  5
41D
100
AcDbEntity
  8
1
100
AcDbText
 10
647.257
 20
-1081.572
 40
10.00
  1
PIECE NAME: Лекало8-42
100
AcDbText
  0
TEXT
  5
41E
100
AcDbEntity
  8
1
100
AcDbText
 10
647.257
 20
-1070.572
 40
10.00
  1
SIZE: 42
100
AcDbText
  0
TEXT
  5
41F
100
AcDbEntity
  8
1
100
AcDbText
 10
647.257
 20
-1059.572
 40
10.00
  1
ANNOTATION: 
100
AcDbText
  0
TEXT
  5
420
100
AcDbEntity
  8
1
100
AcDbText
 10
647.257
 20
-1048.572
 40
10.00
  1
QUANTITY: 1
100
AcDbText
  0
TEXT
  5
421
100
AcDbEntity
  8
1
100
AcDbText
 10
647.257
 20
-1037.572
 40
10.00
  1
MATERIAL: 
100
AcDbText
  0
LWPOLYLINE
  5
422
100
AcDbEntity
  8
1
100
AcDbPolyline
 90
19
 70
1
 43
0.0
 10
947.339
 20
-206.709
 10
987.614
 20
-211.682
 10
974.199
 20
-235.808
 10
1048.334
 20
-366.82
 10
1044.424
 20
-353.138
 10
1017.789
 20
-265.541
 10
999.274
 20
-203.188
 10
987.65
 20
-159.085
 10
979.229
 20
-121.297
 10
979.129
 20
-120.784
 10
977.895
 20
-109.47
 10
978.049
 20
-93.16
 10
980.223
 20
-69.508
 10
986.958
 20
-23.723
 10
962.895
 20
-20
 10
954.226
 20
-69.817
 10
948.38
 20
-106.269
 10
945.646
 20
-132.241
 10
945.086
 20
-152.136
  0
LINE
  5
423
100
AcDbEntity
  8
7
100
AcDbLine
 10
968.985
 20
-205.588
 11
948.149
 21
-205.588
  0
TEXT
  5
424
100
AcDbEntity
  8
1
100
AcDbText
 10
948.149
 20
-194.588
 40
10.00
  1
PIECE NAME: Лекало9-42
100
AcDbText
  0
TEXT
  5
425
100
AcDbEntity
  8
1
100
AcDbText
 10
948.149
 20
-183.588
 40
10.00
  1
SIZE: 42
100
AcDbText
  0
TEXT
  5
426
100
AcDbEntity
  8
1
100
AcDbText
 10
948.149
 20
-172.588
 40
10.00
  1
ANNOTATION: 
100
AcDbText
  0
TEXT
  5
427
100
AcDbEntity
  8
1
100
AcDbText
 10
948.149
 20
-161.588
 40
10.00
  1
QUANTITY: 1
100
AcDbText
  0
TEXT
  5
428
100
AcDbEntity
  8
1
100
AcDbText
 10
948.149
 20
-150.588
 40
10.00
  1
MATERIAL: 
100
AcDbText
  0
LWPOLYLINE
  5
429
100
AcDbEntity
  8
1
100
AcDbPolyline
 90
37
 70
1
 43
0.0
 10
967.614
 20
-221.68
 10
927.339
 20
-216.707
 10
926.718
 20
-200.674
 10
925.093
 20
-162.859
 10
925.599
 20
-142.913
 10
900.066
 20
-152.35
 10
900.573
 20
-153.754
 10
903.996
 20
-165.973
 10
906.108
 20
-179.672
 10
906.756
 20
-194.776
 10
905.802
 20
-211.02
 10
903.17
 20
-228.013
 10
898.875
 20
-245.211
 10
893.082
 20
-261.875
 10
886.046
 20
-277.378
 10
878.114
 20
-291.148
 10
869.646
 20
-302.82
 10
860.943
 20
-312.26
 10
852.238
 20
-319.496
 10
843.702
 20
-324.646
 10
835.365
 20
-327.916
 10
827.22
 20
-329.466
 10
819.201
 20
-329.398
 10
811.225
 20
-327.721
 10
801.982
 20
-362.203
 10
896.31
 20
-396.265
 10
796.392
 20
-407.589
 10
799.92
 20
-441.575
 10
805.042
 20
-491.784
 10
806.71
 20
-521.632
 10
806.615
 20
-546.437
 10
895.718
 20
-548.688
 10
920.528
 20
-419.837
 10
935.144
 20
-550.221
 10
1028.334
 20
-547.736
 10
1028.334
 20
-376.818
 10
954.199
 20
-245.806
  0
LINE
  5
42A
100
AcDbEntity
  8
7
100
AcDbLine
 10
951.021
 20
-407.589
 11
873.707
 21
-407.589
  0
TEXT
  5
42B
100
AcDbEntity
  8
1
100
AcDbText
 10
873.707
 20
-396.589
 40
10.00
  1
PIECE NAME: Лекало10-42
100
AcDbText
  0
TEXT
  5
42C
100
AcDbEntity
  8
1
100
AcDbText
 10
873.707
 20
-385.589
 40
10.00
  1
SIZE: 42
100
AcDbText
  0
TEXT
  5
42D
100
AcDbEntity
  8
1
100
AcDbText
 10
873.707
 20
-374.589
 40
10.00
  1
ANNOTATION: 
100
AcDbText
  0
TEXT
  5
42E
100
AcDbEntity
  8
1
100
AcDbText
 10
873.707
 20
-363.589
 40
10.00
  1
QUANTITY: 1
100
AcDbText
  0
TEXT
  5
42F
100
AcDbEntity
  8
1
100
AcDbText
 10
873.707
 20
-352.589
 40
10.00
  1
MATERIAL: 
100
AcDbText
  0
LWPOLYLINE
  5
430
100
AcDbEntity
  8
1
100
AcDbPolyline
 90
20
 70
1
 43
0.0
 10
1186.389
 20
-133.515
 10
1185.922
 20
-127.697
 10
1182.638
 20
-100.306
 10
1169.14
 20
-21.273
 10
1145.077
 20
-24.997
 10
1146.007
 20
-30.964
 10
1152.002
 20
-72.355
 10
1154.041
 20
-95.499
 10
1154.104
 20
-111.483
 10
1152.806
 20
-122.571
 10
1150.75
 20
-132.521
 10
1141.573
 20
-171.642
 10
1128.733
 20
-218.566
 10
1102.372
 20
-305.287
 10
1083.701
 20
-368.093
 10
1157.836
 20
-237.082
 10
1144.421
 20
-212.955
 10
1184.696
 20
-207.983
 10
1185.546
 20
-187.541
 10
1186.951
 20
-153.27
  0
LINE
  5
431
100
AcDbEntity
  8
7
100
AcDbLine
 10
1163.05
 20
-206.861
 11
1142.214
 21
-206.861
  0
TEXT
  5
432
100
AcDbEntity
  8
1
100
AcDbText
 10
1142.214
 20
-195.861
 40
10.00
  1
PIECE NAME: Лекало11-42
100
AcDbText
  0
TEXT
  5
433
100
AcDbEntity
  8
1
100
AcDbText
 10
1142.214
 20
-184.861
 40
10.00
  1
SIZE: 42
100
AcDbText
  0
TEXT
  5
434
100
AcDbEntity
  8
1
100
AcDbText
 10
1142.214
 20
-173.861
 40
10.00
  1
ANNOTATION: 
100
AcDbText
  0
TEXT
  5
435
100
AcDbEntity
  8
1
100
AcDbText
 10
1142.214
 20
-162.861
 40
10.00
  1
QUANTITY: 1
100
AcDbText
  0
TEXT
  5
436
100
AcDbEntity
  8
1
100
AcDbText
 10
1142.214
 20
-151.861
 40
10.00
  1
MATERIAL: 
100
AcDbText
  0
LWPOLYLINE
  5
437
100
AcDbEntity
  8
1
100
AcDbPolyline
 90
36
 70
1
 43
0.0
 10
1177.836
 20
-247.081
 10
1103.701
 20
-378.093
 10
1103.701
 20
-549.012
 10
1196.891
 20
-551.496
 10
1211.507
 20
-421.113
 10
1236.317
 20
-549.963
 10
1325.42
 20
-547.713
 10
1325.397
 20
-547.085
 10
1325.345
 20
-522.193
 10
1327.067
 20
-492.15
 10
1335.643
 20
-408.864
 10
1235.725
 20
-397.54
 10
1330.053
 20
-363.478
 10
1320.81
 20
-328.997
 10
1319.831
 20
-329.291
 10
1311.864
 20
-330.766
 10
1303.833
 20
-330.641
 10
1295.682
 20
-328.893
 10
1287.323
 20
-325.408
 10
1278.753
 20
-320.011
 10
1270.056
 20
-312.533
 10
1261.383
 20
-302.845
 10
1252.949
 20
-290.9
 10
1245.102
 20
-276.898
 10
1238.196
 20
-261.225
 10
1232.559
 20
-244.43
 10
1228.46
 20
-227.224
 10
1226.028
 20
-210.267
 10
1225.275
 20
-194.137
 10
1226.109
 20
-179.212
 10
1228.391
 20
-165.673
 10
1231.969
 20
-153.625
 10
1206.436
 20
-144.188
 10
1206.95
 20
-163.408
 10
1204.696
 20
-217.983
 10
1164.421
 20
-222.955
  0
LINE
  5
438
100
AcDbEntity
  8
7
100
AcDbLine
 10
1258.329
 20
-408.864
 11
1181.015
 21
-408.864
  0
TEXT
  5
439
100
AcDbEntity
  8
1
100
AcDbText
 10
1181.015
 20
-397.864
 40
10.00
  1
PIECE NAME: Лекало12-42
100
AcDbText
  0
TEXT
  5
43A
100
AcDbEntity
  8
1
100
AcDbText
 10
1181.015
 20
-386.864
 40
10.00
  1
SIZE: 42
100
AcDbText
  0
TEXT
  5
43B
100
AcDbEntity
  8
1
100
AcDbText
 10
1181.015
 20
-375.864
 40
10.00
  1
ANNOTATION: 
100
AcDbText
  0
TEXT
  5
43C
100
AcDbEntity
  8
1
100
AcDbText
 10
1181.015
 20
-364.864
 40
10.00
  1
QUANTITY: 1
100
AcDbText
  0
TEXT
  5
43D
100
AcDbEntity
  8
1
100
AcDbText
 10
1181.015
 20
-353.864
 40
10.00
  1
MATERIAL: 
100
AcDbText
  0
LWPOLYLINE
  5
43E
100
AcDbEntity
  8
1
100
AcDbPolyline
 90
31
 70
1
 43
0.0
 10
43.452
 20
-249.189
 10
43.452
 20
-601.269
 10
128.952
 20
-601.269
 10
145.995
 20
-421.269
 10
162.701
 20
-601.269
 10
248.452
 20
-601.269
 10
247.942
 20
-591.956
 10
248.141
 20
-572.638
 10
250.075
 20
-550.912
 10
254.214
 20
-524.624
 10
268.332
 20
-457.469
 10
273.398
 20
-428.637
 10
269.248
 20
-428.08
 10
256.067
 20
-425.407
 10
246.084
 20
-421.926
 10
238.44
 20
-417.719
 10
232.664
 20
-412.839
 10
228.452
 20
-407.269
 10
218.351
 20
-388.727
 10
208.848
 20
-368.019
 10
200.615
 20
-346.197
 10
193.648
 20
-323.125
 10
187.957
 20
-298.628
 10
183.575
 20
-272.516
 10
180.549
 20
-244.525
 10
154.272
 20
-237.418
 10
150.838
 20
-240.528
 10
144.707
 20
-243.649
 10
135.126
 20
-246.361
 10
120.686
 20
-248.432
 10
98.902
 20
-249.56
  0
LINE
  5
43F
100
AcDbEntity
  8
7
100
AcDbLine
 10
175.156
 20
-419.343
 11
109.304
 21
-419.343
  0
TEXT
  5
440
100
AcDbEntity
  8
1
100
AcDbText
 10
109.304
 20
-408.343
 40
10.00
  1
PIECE NAME: Лекало13-42
100
AcDbText
  0
TEXT
  5
441
100
AcDbEntity
  8
1
100
AcDbText
 10
109.304
 20
-397.343
 40
10.00
  1
SIZE: 42
100
AcDbText
  0
TEXT
  5
442
100
AcDbEntity
  8
1
100
AcDbText
 10
109.304
 20
-386.343
 40
10.00
  1
ANNOTATION: 
100
AcDbText
  0
TEXT
  5
443
100
AcDbEntity
  8
1
100
AcDbText
 10
109.304
 20
-375.343
 40
10.00
  1
QUANTITY: 1
100
AcDbText
  0
TEXT
  5
444
100
AcDbEntity
  8
1
100
AcDbText
 10
109.304
 20
-364.343
 40
10.00
  1
MATERIAL: fabric
100
AcDbText
  0
LWPOLYLINE
  5
445
100
AcDbEntity
  8
1
100
AcDbPolyline
 90
31
 70
1
 43
0.0
 10
2098.579
 20
-234.378
 10
2072.303
 20
-241.486
 10
2069.496
 20
-267.864
 10
2065.193
 20
-294.077
 10
2059.578
 20
-318.671
 10
2052.69
 20
-341.811
 10
2044.535
 20
-363.699
 10
2035.109
 20
-384.471
 10
2024.4
 20
-404.229
 10
2023.46
 20
-405.723
 10
2018.868
 20
-411.111
 10
2012.65
 20
-415.821
 10
2004.466
 20
-419.847
 10
1993.781
 20
-423.128
 10
1979.453
 20
-425.597
 10
1982.727
 20
-445.192
 10
1995.376
 20
-505.105
 10
2001.106
 20
-535.975
 10
2004.008
 20
-559.458
 10
2005.015
 20
-579.779
 10
2004.4
 20
-598.229
 10
2090.151
 20
-598.229
 10
2106.857
 20
-418.229
 10
2123.9
 20
-598.229
 10
2209.4
 20
-598.229
 10
2209.4
 20
-246.149
 10
2156.232
 20
-246.56
 10
2133.633
 20
-245.526
 10
2118.694
 20
-243.517
 10
2108.764
 20
-240.842
 10
2102.405
 20
-237.75
  0
LINE
  5
446
100
AcDbEntity
  8
7
100
AcDbLine
 10
2143.549
 20
-416.303
 11
2077.696
 21
-416.303
  0
TEXT
  5
447
100
AcDbEntity
  8
1
100
AcDbText
 10
2077.696
 20
-405.303
 40
10.00
  1
PIECE NAME: Лекало14-42
100
AcDbText
  0
TEXT
  5
448
100
AcDbEntity
  8
1
100
AcDbText
 10
2077.696
 20
-394.303
 40
10.00
  1
SIZE: 42
100
AcDbText
  0
TEXT
  5
449
100
AcDbEntity
  8
1
100
AcDbText
 10
2077.696
 20
-383.303
 40
10.00
  1
ANNOTATION: 
100
AcDbText
  0
TEXT
  5
44A
100
AcDbEntity
  8
1
100
AcDbText
 10
2077.696
 20
-372.303
 40
10.00
  1
QUANTITY: 1
100
AcDbText
  0
TEXT
  5
44B
100
AcDbEntity
  8
1
100
AcDbText
 10
2077.696
 20
-361.303
 40
10.00
  1
MATERIAL: fabric
100
AcDbText
  0
TEXT
  5
44C
100
AcDbEntity
  8
1
100
AcDbText
 10
20
 20
-1272.471
 40
10.00
  1
STYLE NAME: 263_42
100
AcDbText
  0
TEXT
  5
44D
100
AcDbEntity
  8
1
100
AcDbText
 10
20
 20
-1283.471
 40
10.00
  1
CREATION DATE: 16-04-2015
100
AcDbText
  0
TEXT
  5
44E
100
AcDbEntity
  8
1
100
AcDbText
 10
20
 20
-1294.471
 40
10.00
  1
CREATION TIME: 11:21:36
100
AcDbText
  0
TEXT
  5
44F
100
AcDbEntity
  8
1
100
AcDbText
 10
20
 20
-1305.471
 40
10.00
  1
AUTHOR: GEMINI CAD SYSTEMS
100
AcDbText
  0
TEXT
  5
450
100
AcDbEntity
  8
1
100
AcDbText
 10
20
 20
-1316.471
 40
10.00
  1
PRODUCT: GEMINI PATTERN EDITOR
100
AcDbText
  0
TEXT
  5
451
100
AcDbEntity
  8
1
100
AcDbText
 10
20
 20
-1327.471
 40
10.00
  1
SAMPLE SIZE: 42
100
AcDbText
  0
TEXT
  5
452
100
AcDbEntity
  8
1
100
AcDbText
 10
20
 20
-1338.471
 40
10.00
  1
GRADE RULE TABLE: 263_42
100
AcDbText
  0
TEXT
  5
453
100
AcDbEntity
  8
1
100
AcDbText
 10
20
 20
-1349.471
 40
10.00
  1
UNITS: METRIC
100
AcDbText
  0
ENDSEC
  0
SECTION
  2
OBJECTS
  0
DICTIONARY
  5
C
100
AcDbDictionary
281
1
  3
ACAD_COLOR
350
6B
  3
ACAD_GROUP
350
D
  3
ACAD_LAYOUT
350
1A
  3
ACAD_MATERIAL
350
6A
  3
ACAD_MLINESTYLE
350
17
  3
ACAD_PLOTSETTINGS
350
19
  3
ACAD_PLOTSTYLENAME
350
E
  3
ACAD_TABLESTYLE
350
7E
  3
ACDBHEADERROUNDTRIPXREC
350
109
  3
AcDbVariableDictionary
350
5E
  3
DWGPROPS
350
108
  0
DICTIONARY
  5
6B
102
{ACAD_REACTORS
330
C
102
}
100
AcDbDictionary
281
1
  0
DICTIONARY
  5
D
102
{ACAD_REACTORS
330
C
102
}
100
AcDbDictionary
281
1
  0
DICTIONARY
  5
1A
102
{ACAD_REACTORS
330
C
102
}
100
AcDbDictionary
281
1
  3
Layout1
350
D3
  3
Layout2
350
D7
  3
Model
350
22
  0
DICTIONARY
  5
6A
102
{ACAD_REACTORS
330
C
102
}
100
AcDbDictionary
281
1
  0
DICTIONARY
  5
17
102
{ACAD_REACTORS
330
C
102
}
100
AcDbDictionary
281
1
  3
Standard
350
18
  0
DICTIONARY
  5
19
102
{ACAD_REACTORS
330
C
102
}
100
AcDbDictionary
281
1
  0
ACDBDICTIONARYWDFLT
  5
E
102
{ACAD_REACTORS
330
C
102
}
100
AcDbDictionary
281
1
  3
Normal
350
F
100
AcDbDictionaryWithDefault
340
F
  0
ENDSEC
  0
EOF
